<svg width="119" height="119" viewBox="0 0 119 119" fill="none" xmlns="http://www.w3.org/2000/svg">
<circle cx="59.1465" cy="59.1465" r="57.7648" fill="white" stroke="#F38820" stroke-width="2.76348"/>
<path d="M60.8922 40.4935C60.7235 40.332 60.499 40.2419 60.2655 40.2419C60.0319 40.2419 59.8074 40.332 59.6387 40.4935L38.7726 60.4267C38.684 60.5115 38.6135 60.6134 38.5654 60.7262C38.5173 60.839 38.4925 60.9603 38.4927 61.083L38.4893 79.791C38.4893 80.7529 38.8714 81.6755 39.5516 82.3556C40.2317 83.0358 41.1543 83.4179 42.1162 83.4179H53.0082C53.4892 83.4179 53.9504 83.2269 54.2905 82.8868C54.6306 82.5467 54.8217 82.0854 54.8217 81.6045V66.1901C54.8217 65.9496 54.9172 65.719 55.0873 65.549C55.2573 65.3789 55.4879 65.2834 55.7284 65.2834H64.7957C65.0362 65.2834 65.2668 65.3789 65.4368 65.549C65.6069 65.719 65.7024 65.9496 65.7024 66.1901V81.6045C65.7024 82.0854 65.8935 82.5467 66.2336 82.8868C66.5737 83.2269 67.0349 83.4179 67.5159 83.4179H78.4034C79.3653 83.4179 80.2878 83.0358 80.968 82.3556C81.6482 81.6755 82.0303 80.7529 82.0303 79.791V61.083C82.0305 60.9603 82.0057 60.839 81.9576 60.7262C81.9095 60.6134 81.839 60.5115 81.7504 60.4267L60.8922 40.4935Z" fill="#F38820"/>
<path d="M86.8873 56.6874L78.4094 48.5767V36.269C78.4094 35.788 78.2184 35.3268 77.8783 34.9867C77.5382 34.6466 77.0769 34.4555 76.596 34.4555H71.1556C70.6747 34.4555 70.2134 34.6466 69.8733 34.9867C69.5332 35.3268 69.3422 35.788 69.3422 36.269V39.8959L62.7775 33.6191C62.1631 32.998 61.2496 32.6421 60.2624 32.6421C59.2786 32.6421 58.3674 32.998 57.753 33.6202L33.6454 56.6851C32.9404 57.3652 32.852 58.4838 33.4936 59.2205C33.6546 59.4065 33.8519 59.5577 34.0733 59.665C34.2947 59.7723 34.5356 59.8335 34.7814 59.8447C35.0272 59.856 35.2726 59.8171 35.5029 59.7304C35.7332 59.6438 35.9434 59.5112 36.1208 59.3407L59.639 36.8674C59.8078 36.706 60.0323 36.6159 60.2658 36.6159C60.4993 36.6159 60.7239 36.706 60.8926 36.8674L84.4131 59.3407C84.7596 59.6729 85.2237 59.8543 85.7036 59.8449C86.1835 59.8356 86.6402 59.6363 86.9735 59.2908C87.6694 58.57 87.6116 57.3799 86.8873 56.6874Z" fill="#F38820"/>
</svg>
