<svg width="122" height="122" viewBox="0 0 122 122" fill="none" xmlns="http://www.w3.org/2000/svg">
<circle cx="60.7965" cy="60.7965" r="59.4148" fill="white" stroke="#F38820" stroke-width="2.76348"/>
<g clip-path="url(#clip0_2080_691)">
<path d="M86.8964 39.6089H37.4608C36.5243 39.6089 35.6261 39.981 34.9639 40.6432C34.3017 41.3054 33.9297 42.2036 33.9297 43.1401V78.4512C33.9297 79.3877 34.3017 80.2858 34.9639 80.9481C35.6261 81.6103 36.5243 81.9823 37.4608 81.9823H86.8964C87.8329 81.9823 88.731 81.6103 89.3933 80.9481C90.0555 80.2858 90.4275 79.3877 90.4275 78.4512V43.1401C90.4275 42.2036 90.0555 41.3054 89.3933 40.6432C88.731 39.981 87.8329 39.6089 86.8964 39.6089ZM84.1774 78.4512H40.3916L52.7505 65.6686L50.2081 63.2144L37.4608 76.4031V45.8237L59.4067 67.6636C60.0683 68.3213 60.9632 68.6905 61.8961 68.6905C62.829 68.6905 63.7239 68.3213 64.3855 67.6636L86.8964 45.2764V76.1736L73.9019 63.1791L71.4124 65.6686L84.1774 78.4512ZM39.7737 43.1401H84.0362L61.8961 65.1565L39.7737 43.1401Z" fill="#F38820"/>
</g>
<defs>
<clipPath id="clip0_2080_691">
<rect width="63.56" height="49.7426" fill="white" transform="translate(30.3984 37.307)"/>
</clipPath>
</defs>
</svg>
