<svg width="28" height="25" viewBox="0 0 28 25" fill="none" xmlns="http://www.w3.org/2000/svg">
<path d="M20.4694 0H6.83241C3.06493 0 0 2.87535 0 6.40979V18.114C0 21.6484 3.06493 24.5238 6.83241 24.5238H20.4694C24.2369 24.5238 27.3018 21.6484 27.3018 18.114V6.40979C27.3018 2.87535 24.2369 0 20.4694 0ZM2.41026 6.40979C2.41026 4.12254 4.39436 2.26118 6.83241 2.26118H20.4694C22.9075 2.26118 24.8916 4.12254 24.8916 6.40979V18.114C24.8916 20.4012 22.9075 22.2626 20.4694 22.2626H6.83241C4.39436 22.2626 2.41026 20.4012 2.41026 18.114V6.40979Z" fill="#F57920"/>
<path d="M13.6468 18.2219C17.1503 18.2219 20.0021 15.5479 20.0021 12.2597C20.0021 8.97151 17.1518 6.29749 13.6468 6.29749C10.1418 6.29749 7.2915 8.97151 7.2915 12.2597C7.2915 15.5479 10.1418 18.2219 13.6468 18.2219ZM13.6468 8.56012C15.8224 8.56012 17.5918 10.2202 17.5918 12.2611C17.5918 14.3021 15.8224 15.9621 13.6468 15.9621C11.4712 15.9621 9.70176 14.3021 9.70176 12.2611C9.70176 10.2202 11.4712 8.56012 13.6468 8.56012Z" fill="#F57920"/>
<path d="M20.5956 7.2611C21.5391 7.2611 22.308 6.54117 22.308 5.65466C22.308 4.76815 21.5406 4.04822 20.5956 4.04822C19.6507 4.04822 18.8833 4.76815 18.8833 5.65466C18.8833 6.54117 19.6507 7.2611 20.5956 7.2611Z" fill="#F57920"/>
</svg>
