<svg width="28" height="28" viewBox="0 0 28 28" fill="none" xmlns="http://www.w3.org/2000/svg">
<path d="M8.5725 26.9497C1.66854 20.0458 1.6788 8.86232 8.5725 1.96863C8.8754 1.66573 9.34473 1.61608 9.70281 1.83988L13.1484 3.9935C13.3301 4.10705 13.4661 4.28083 13.5326 4.48448C13.5992 4.68812 13.5921 4.90868 13.5125 5.1076L11.7897 9.41459C11.7161 9.59857 11.5847 9.75365 11.4153 9.85643C11.2459 9.9592 11.0476 10.0041 10.8505 9.9844L7.88366 9.68777C6.76462 12.7849 6.78795 16.1982 7.88366 19.2306L10.8505 18.9339C11.0477 18.9142 11.2459 18.9591 11.4153 19.0619C11.5848 19.1647 11.7162 19.3197 11.7898 19.5037L13.5125 23.8108C13.5921 24.0097 13.5992 24.2302 13.5327 24.4339C13.4661 24.6375 13.3301 24.8113 13.1485 24.9249L9.70287 27.0785C9.52765 27.188 9.32049 27.2349 9.1152 27.2115C8.90991 27.1881 8.7186 27.0958 8.5725 26.9497ZM16.5353 5.07523C17.1643 6.14091 17.1643 7.46781 16.5353 8.53348C16.3253 8.88927 15.8385 8.95657 15.5403 8.67068L15.2227 8.3663C15.0148 8.16706 14.9679 7.8548 15.1025 7.60028C15.232 7.35498 15.2997 7.08176 15.2997 6.80436C15.2997 6.52695 15.232 6.25374 15.1025 6.00844C14.9678 5.75391 15.0148 5.44166 15.2227 5.24242L15.5403 4.93803C15.8385 4.65214 16.3253 4.71944 16.5353 5.07523ZM21.4146 0.227833C24.6116 4.03422 24.609 9.57752 21.4146 13.3808C21.1768 13.664 20.7485 13.6863 20.4816 13.4304L20.1734 13.135C19.931 12.9027 19.9088 12.5222 20.1239 12.2643C22.7652 9.09936 22.763 4.5067 20.1239 1.34433C19.9088 1.08651 19.9309 0.705997 20.1734 0.47364L20.4816 0.178236C20.7485 -0.0776179 21.1768 -0.0553443 21.4146 0.227833ZM18.9708 2.61685C20.8872 5.07927 20.8903 8.5254 18.9708 10.9918C18.7374 11.2917 18.2958 11.3241 18.0216 11.0611L17.7123 10.7646C17.4784 10.5403 17.4466 10.1748 17.644 9.91769C19.0546 8.0803 19.0545 5.52825 17.644 3.69097C17.4466 3.4339 17.4784 3.06843 17.7123 2.8441L18.0216 2.54753C18.2958 2.28455 18.7374 2.31698 18.9708 2.61685Z" fill="#F57920"/>
</svg>
