<svg width="122" height="122" viewBox="0 0 122 122" fill="none" xmlns="http://www.w3.org/2000/svg">
<circle cx="60.7965" cy="60.7965" r="59.4148" fill="white" stroke="#F38820" stroke-width="2.76348"/>
<path d="M49.034 32.4539L52.3823 31.3845C55.5161 30.3834 58.8675 32.0032 60.2106 35.168L62.8842 41.4729C64.0501 44.2181 63.4034 47.4482 61.2862 49.4566L55.4011 55.0464C55.7648 58.3916 56.8871 61.684 58.7711 64.9234C60.5613 68.0578 62.9621 70.8011 65.8315 72.9911L72.9074 70.6283C75.5872 69.736 78.5065 70.7651 80.1511 73.1807L83.9813 78.8079C85.8964 81.6183 85.5513 85.492 83.1792 87.8734L80.6361 90.4259C78.1055 92.9658 74.4929 93.8892 71.1477 92.8446C63.2542 90.3823 55.998 83.0733 49.376 70.9174C42.7447 58.7429 40.4068 48.4089 42.3561 39.9278C43.1768 36.3587 45.7199 33.5141 49.0402 32.4539H49.034Z" fill="#F38820"/>
</svg>
