<svg width="20" height="23" viewBox="0 0 20 23" fill="none" xmlns="http://www.w3.org/2000/svg">
<path d="M19.6234 5.48419V9.38799C18.9411 9.32136 18.0546 9.16636 17.0739 8.80713C15.7934 8.3378 14.8403 7.69608 14.216 7.19923V15.0894L14.2 15.0648C14.2102 15.2213 14.216 15.3806 14.216 15.5414C14.216 19.4597 11.0277 22.6494 7.10798 22.6494C3.18824 22.6494 0 19.4597 0 15.5414C0 11.6231 3.18824 8.43194 7.10798 8.43194C7.49185 8.43194 7.86847 8.46238 8.2364 8.52177V12.3691C7.88296 12.243 7.50343 12.175 7.10798 12.175C5.2524 12.175 3.74158 13.6844 3.74158 15.5414C3.74158 17.3984 5.2524 18.9078 7.10798 18.9078C8.96356 18.9078 10.4744 17.397 10.4744 15.5414C10.4744 15.4719 10.4729 15.4023 10.4686 15.3328V0H14.3695C14.384 0.330267 14.397 0.663447 14.4115 0.993714C14.4376 1.64411 14.6694 2.2684 15.0735 2.77974C15.5472 3.38088 16.2468 4.07909 17.2289 4.63678C18.1487 5.1568 19.0121 5.38131 19.6234 5.48705V5.48419Z" fill="#F57920"/>
</svg>
