<svg width="25" height="26" viewBox="0 0 25 26" fill="none" xmlns="http://www.w3.org/2000/svg">
<path d="M23.2101 7.31547C22.5996 5.88781 21.7232 4.60604 20.6104 3.50142C19.4977 2.40723 18.2077 1.54229 16.77 0.937881C15.283 0.312627 13.7074 0 12.0826 0C10.4578 0 8.88227 0.312627 7.39533 0.937881C5.95762 1.54229 4.66763 2.39681 3.55488 3.50142C2.44214 4.60604 1.56574 5.88781 0.955207 7.31547C0.32498 8.79524 0 10.3792 0 12.0049C0 14.8498 1.00441 17.5801 2.84586 19.7476L1.86113 25.427L7.09991 22.9572C8.66563 23.6659 10.3298 24.0202 12.0728 24.0202C13.6976 24.0202 15.2732 23.7076 16.7601 23.0823C18.1978 22.4779 19.4878 21.6234 20.6006 20.5188C21.7133 19.4141 22.5897 18.1324 23.2002 16.7047C23.8305 15.2249 24.1554 13.641 24.1554 12.0153C24.1653 10.3792 23.8403 8.80566 23.2101 7.31547Z" fill="#F38820"/>
<path d="M16.5671 14.0928C16.0838 13.8246 15.7306 13.6596 15.4797 13.5565C15.3217 13.4946 14.9499 13.3089 14.8198 13.4224C14.4108 13.7937 13.974 14.8457 13.5093 15.0416C12.3568 14.7941 11.288 13.9174 10.4515 13.0201C10.0797 12.6282 9.39193 11.5143 9.24322 11.2152C9.21534 10.9058 9.71721 10.4932 9.82874 10.256C10.405 9.53406 9.96817 9.08025 9.89382 8.78115C9.7637 8.47174 9.54065 7.91479 9.34547 7.46098C9.17817 7.16188 9.14096 6.71838 8.84354 6.55336C7.57952 5.8314 6.8546 7.27533 6.55719 8.02824C4.76339 12.8242 15.5447 21.9519 17.7382 15.6605C17.8497 15.1138 17.8032 14.9076 17.6359 14.66C17.3013 14.4022 16.911 14.2887 16.5671 14.0928Z" fill="white"/>
</svg>
