<svg width="24" height="17" viewBox="0 0 24 17" fill="none" xmlns="http://www.w3.org/2000/svg">
<path d="M23.3663 2.62551C23.0919 1.59205 22.2832 0.778132 21.2564 0.501916C19.3953 0 11.9325 0 11.9325 0C11.9325 0 4.46974 0 2.6086 0.501916C1.58183 0.778175 0.77315 1.59205 0.498682 2.62551C0 4.49872 0 8.40698 0 8.40698C0 8.40698 0 12.3153 0.498682 14.1885C0.77315 15.2219 1.58183 16.0019 2.6086 16.2781C4.46974 16.7801 11.9325 16.7801 11.9325 16.7801C11.9325 16.7801 19.3953 16.7801 21.2564 16.2781C22.2832 16.0019 23.0919 15.2219 23.3663 14.1885C23.865 12.3153 23.865 8.40698 23.865 8.40698C23.865 8.40698 23.865 4.49872 23.3663 2.62551ZM9.49175 11.9554V4.85857L15.7292 8.40707L9.49175 11.9554Z" fill="#F57920"/>
</svg>
